<svg xmlns="http://www.w3.org/2000/svg" xmlns:xlink="http://www.w3.org/1999/xlink" width="500" zoomAndPan="magnify" viewBox="0 0 375 149.999998" height="200" preserveAspectRatio="xMidYMid meet" version="1.0"><defs><g/></defs><g fill="#3fc1c9" fill-opacity="1"><g transform="translate(158.284425, 85.505469)"><g><path d="M 16.132812 -13.414062 C 19.773438 -14.566406 21.941406 -17.835938 21.941406 -21.984375 C 21.941406 -27.195312 18.527344 -30.882812 12.953125 -30.882812 L 4.5625 -30.882812 C 3.78125 -30.882812 3.132812 -30.234375 3.132812 -29.453125 L 3.132812 -1.429688 C 3.132812 -0.644531 3.78125 0 4.5625 0 L 6.820312 0 C 7.652344 0 8.296875 -0.644531 8.296875 -1.429688 L 8.296875 -13.503906 C 8.988281 -13.320312 9.726562 -13.226562 10.460938 -13.136719 L 16.59375 -1.289062 C 17.007812 -0.507812 17.421875 0 18.757812 0 L 21.109375 0 C 22.171875 0 22.445312 -1.105469 22.078125 -1.84375 Z M 12.953125 -25.8125 C 15.210938 -25.8125 16.730469 -24.335938 16.730469 -21.941406 C 16.730469 -19.40625 15.117188 -17.882812 12.90625 -17.882812 L 8.296875 -17.882812 L 8.296875 -25.8125 Z M 12.953125 -25.8125 "/></g></g></g><g fill="#3fc1c9" fill-opacity="1"><g transform="translate(185.661134, 85.505469)"><g><path d="M 18.714844 -24.058594 C 17.5625 -24.058594 17.144531 -23.460938 16.960938 -22.632812 L 12.074219 -6.820312 L 7.191406 -22.632812 C 7.007812 -23.460938 6.589844 -24.058594 5.4375 -24.058594 L 3.179688 -24.058594 C 2.304688 -24.058594 1.707031 -23.230469 1.980469 -22.402344 L 9.542969 0.230469 L 9.082031 1.519531 C 8.25 3.734375 7.238281 4.609375 5.253906 4.609375 L 4.195312 4.609375 C 3.410156 4.609375 2.765625 5.253906 2.765625 6.039062 L 2.765625 7.789062 C 2.765625 8.574219 3.410156 9.21875 4.195312 9.21875 L 6.730469 9.21875 C 11.523438 9.21875 12.859375 5.898438 14.289062 1.660156 L 22.214844 -22.402344 C 22.445312 -23.230469 21.847656 -24.058594 20.972656 -24.058594 Z M 18.714844 -24.058594 "/></g></g></g><g fill="#3fc1c9" fill-opacity="1"><g transform="translate(213.037843, 85.505469)"><g><path d="M 13.273438 0 C 14.148438 0 14.886719 -0.554688 15.117188 -1.382812 L 22.171875 -22.402344 C 22.445312 -23.230469 21.847656 -24.058594 20.972656 -24.058594 L 18.714844 -24.058594 C 17.5625 -24.058594 17.144531 -23.460938 16.960938 -22.632812 L 12.074219 -6.867188 L 7.191406 -22.632812 C 7.007812 -23.460938 6.589844 -24.058594 5.4375 -24.058594 L 3.179688 -24.058594 C 2.304688 -24.058594 1.707031 -23.230469 1.980469 -22.402344 L 9.035156 -1.382812 C 9.3125 -0.554688 10.046875 0 10.878906 0 Z M 13.273438 0 "/></g></g></g><g fill="#3fc1c9" fill-opacity="1"><g transform="translate(240.414556, 85.505469)"><g><path d="M 3.320312 -9.402344 C 3.320312 -3.042969 6.453125 0.460938 12.722656 0.460938 C 16.039062 0.460938 18.484375 -0.691406 20.140625 -2.71875 C 20.558594 -3.226562 20.464844 -4.242188 19.867188 -4.703125 L 18.667969 -5.578125 C 17.746094 -6.269531 17.375 -6.085938 16.269531 -5.484375 C 15.117188 -4.515625 13.917969 -4.148438 12.722656 -4.148438 C 10 -4.148438 8.433594 -5.625 8.433594 -8.851562 L 8.433594 -10.230469 L 19.679688 -10.230469 C 20.464844 -10.230469 21.109375 -10.878906 21.109375 -11.660156 L 21.109375 -14.980469 C 21.109375 -21.386719 18.066406 -24.707031 12.214844 -24.707031 C 6.359375 -24.707031 3.320312 -21.386719 3.320312 -14.980469 Z M 8.433594 -15.578125 C 8.433594 -18.667969 9.632812 -20.097656 12.214844 -20.097656 C 14.796875 -20.097656 15.992188 -18.714844 15.992188 -15.578125 L 15.992188 -14.425781 L 8.433594 -14.335938 Z M 8.433594 -15.578125 "/></g></g></g><g fill="#3fc1c9" fill-opacity="1"><g transform="translate(267.791262, 85.505469)"><g><path d="M 8.019531 0 C 8.851562 0 9.496094 -0.597656 9.679688 -1.429688 L 12.074219 -13.367188 L 14.472656 -1.429688 C 14.65625 -0.597656 15.300781 0 16.132812 0 L 18.757812 0 C 19.589844 0 20.234375 -0.597656 20.328125 -1.429688 L 22.953125 -29.222656 C 23.046875 -30.234375 22.539062 -30.882812 21.664062 -30.882812 L 19.496094 -30.882812 C 18.34375 -30.882812 17.792969 -30.421875 17.746094 -29.453125 L 16.410156 -10.738281 L 14.65625 -23.691406 C 14.566406 -24.382812 14.105469 -25.027344 13.226562 -25.027344 L 10.921875 -25.027344 C 10.046875 -25.027344 9.585938 -24.382812 9.496094 -23.691406 L 7.742188 -10.738281 L 6.359375 -29.453125 C 6.269531 -30.421875 5.761719 -30.882812 4.609375 -30.882812 L 2.351562 -30.882812 C 1.476562 -30.882812 1.058594 -30.097656 1.152344 -29.222656 L 3.824219 -1.429688 C 3.917969 -0.597656 4.5625 0 5.394531 0 Z M 8.019531 0 "/></g></g></g><g fill="#3fc1c9" fill-opacity="1"><g transform="translate(295.167968, 85.505469)"><g><path d="M 3.320312 -9.402344 C 3.320312 -3.042969 6.453125 0.460938 12.722656 0.460938 C 16.039062 0.460938 18.484375 -0.691406 20.140625 -2.71875 C 20.558594 -3.226562 20.464844 -4.242188 19.867188 -4.703125 L 18.667969 -5.578125 C 17.746094 -6.269531 17.375 -6.085938 16.269531 -5.484375 C 15.117188 -4.515625 13.917969 -4.148438 12.722656 -4.148438 C 10 -4.148438 8.433594 -5.625 8.433594 -8.851562 L 8.433594 -10.230469 L 19.679688 -10.230469 C 20.464844 -10.230469 21.109375 -10.878906 21.109375 -11.660156 L 21.109375 -14.980469 C 21.109375 -21.386719 18.066406 -24.707031 12.214844 -24.707031 C 6.359375 -24.707031 3.320312 -21.386719 3.320312 -14.980469 Z M 8.433594 -15.578125 C 8.433594 -18.667969 9.632812 -20.097656 12.214844 -20.097656 C 14.796875 -20.097656 15.992188 -18.714844 15.992188 -15.578125 L 15.992188 -14.425781 L 8.433594 -14.335938 Z M 8.433594 -15.578125 "/></g></g></g><g fill="#3fc1c9" fill-opacity="1"><g transform="translate(322.544675, 85.505469)"><g><path d="M 13.503906 -24.707031 C 11.339844 -24.707031 9.585938 -24.058594 8.390625 -22.769531 L 8.390625 -32.679688 C 8.390625 -33.460938 7.742188 -34.109375 6.960938 -34.109375 L 4.703125 -34.109375 C 3.917969 -34.109375 3.273438 -33.460938 3.273438 -32.679688 L 3.273438 -1.429688 C 3.273438 -0.644531 3.917969 0 4.703125 0 L 6.960938 0 C 7.742188 0 8.390625 -0.644531 8.390625 -1.429688 L 8.390625 -1.476562 C 9.585938 -0.183594 11.339844 0.460938 13.503906 0.460938 C 18.484375 0.460938 21.203125 -2.949219 21.203125 -9.265625 L 21.203125 -14.980469 C 21.203125 -21.339844 18.484375 -24.707031 13.503906 -24.707031 Z M 16.085938 -8.664062 C 16.085938 -5.855469 14.75 -4.378906 12.214844 -4.378906 C 9.726562 -4.378906 8.390625 -5.855469 8.390625 -7.511719 L 8.390625 -16.777344 C 8.390625 -18.4375 9.726562 -19.867188 12.214844 -19.867188 C 14.75 -19.867188 16.085938 -18.390625 16.085938 -15.578125 Z M 16.085938 -8.664062 "/></g></g></g><g fill="#3fc1c9" fill-opacity="1"><g transform="translate(46.872612, 92.903866)"><g><path d="M 23.375 -3.21875 C 22.945312 -1.84375 22.421875 -0.851562 21.796875 -0.25 C 21.179688 0.34375 20.742188 0.640625 20.484375 0.640625 C 20.222656 0.640625 20.007812 0.554688 19.84375 0.390625 L 0.703125 -18.15625 L 17 -33.8125 C 17.726562 -34.539062 18.523438 -35.613281 19.390625 -37.03125 C 20.765625 -36.601562 21.828125 -36.015625 22.578125 -35.265625 C 23.328125 -34.515625 23.46875 -33.921875 23 -33.484375 L 6.765625 -18.09375 L 20.15625 -5.609375 C 21.144531 -4.703125 22.21875 -3.90625 23.375 -3.21875 Z M 23.375 -3.21875 "/></g></g></g><g fill="#3fc1c9" fill-opacity="1"><g transform="translate(76.108539, 92.903866)"><g><path d="M 27.828125 -44.890625 C 28.472656 -44.890625 28.796875 -44.71875 28.796875 -44.375 C 28.796875 -44.25 28.75 -44.097656 28.65625 -43.921875 L 7.21875 4.828125 C 6.613281 6.203125 6.25 7.515625 6.125 8.765625 C 4.488281 9.453125 3.15625 9.796875 2.125 9.796875 C 1.09375 9.796875 0.578125 9.597656 0.578125 9.203125 C 0.578125 9.078125 0.597656 8.953125 0.640625 8.828125 L 22.09375 -39.9375 C 22.601562 -41.175781 22.988281 -42.484375 23.25 -43.859375 C 24.789062 -44.546875 26.316406 -44.890625 27.828125 -44.890625 Z M 27.828125 -44.890625 "/></g></g></g><g fill="#3fc1c9" fill-opacity="1"><g transform="translate(109.980878, 92.903866)"><g><path d="M 1.359375 -32.96875 C 1.785156 -34.34375 2.304688 -35.332031 2.921875 -35.9375 C 3.546875 -36.539062 3.988281 -36.84375 4.25 -36.84375 C 4.507812 -36.84375 4.722656 -36.753906 4.890625 -36.578125 L 24.03125 -18.03125 L 7.734375 -2.390625 C 6.953125 -1.648438 6.15625 -0.570312 5.34375 0.84375 C 3.96875 0.40625 2.90625 -0.1875 2.15625 -0.9375 C 1.40625 -1.6875 1.265625 -2.273438 1.734375 -2.703125 L 17.96875 -18.09375 L 4.578125 -30.59375 C 3.585938 -31.5 2.515625 -32.289062 1.359375 -32.96875 Z M 1.359375 -32.96875 "/></g></g></g></svg>